<svg width="450" height="667" viewBox="0 0 450 667" fill="none" xmlns="http://www.w3.org/2000/svg">
<mask id="mask0_239_1922" style="mask-type:alpha" maskUnits="userSpaceOnUse" x="0" y="0" width="450" height="667">
<rect width="450" height="666.667" fill="#D9D9D9"/>
</mask>
<g mask="url(#mask0_239_1922)">
<g opacity="0.3">
<path d="M-59.8799 348.327C-135.958 229.191 -2.20387 151.518 -2.20387 151.518C-2.20387 151.518 4.56679 143.309 -15.6311 121.34C-63.5474 153.761 -151.721 235.812 -90.3803 348.551C-9.40665 497.373 302.799 542.048 467.56 528.232L850.426 468.008C850.426 468.008 93.0348 587.785 -59.8853 348.33L-59.8799 348.327Z" fill="#00B0BE"/>
<path d="M-84.0443 342.515C-145.385 229.776 -63.5463 153.757 -15.6301 121.336C-17.1046 119.733 -18.6828 118.149 -20.3912 116.597C-30.6808 110.049 -40.8989 104.192 -51.0323 98.9576C-90.1663 130.33 -169.543 211.722 -121.091 327.252C-72.8631 442.239 93.9988 512.709 288.454 518.416C334.908 519.781 762.867 530.835 955.677 443.63C955.677 443.63 728.522 504.543 455.058 509.175C398.094 510.137 358.466 508.608 288.175 501.585C112.955 484.069 -23.7628 453.306 -84.0489 342.514L-84.0443 342.515Z" fill="#00D6DD"/>
<path d="M-121.093 327.256C-169.549 211.725 -90.1681 130.334 -51.0342 98.9614C-62.847 92.8628 -74.546 87.6307 -86.1224 83.1954C-121.754 110.03 -208.265 189.531 -157.683 313.06C-111.052 426.931 8.47104 507.46 217.962 520.438C280.423 524.305 578.175 565.653 951.781 444.626C951.781 444.626 692.146 519.271 442.979 519.166C360.031 519.131 286.425 514.668 219.212 507.52C55.418 490.107 -78.7245 428.263 -121.088 327.257L-121.093 327.256Z" fill="#00D6DD"/>
<path d="M-200.061 376.99C-118.933 502.333 56.7237 557.313 264.222 556.84C318.581 556.715 532.664 580.039 959.98 442.161C959.98 442.161 781.891 505.962 525.664 524.784C392.587 534.559 349.703 526.97 255.944 522.023C22.3789 509.697 -108.344 433.662 -157.718 313.081C-208.299 189.546 -121.789 110.051 -86.1575 83.2159C-99.9323 77.9352 -113.525 73.7826 -126.91 70.6337C-168.528 113.535 -280.533 252.647 -200.057 376.991L-200.061 376.99Z" fill="#00EEF0"/>
<path d="M-173.289 357.154C-253.766 232.81 -168.532 113.535 -126.914 70.6331C-332.942 22.1333 -489.459 212.099 -489.459 212.099L-489.851 675.942L963.627 676.876L963.703 441.173C920.327 451.961 607.393 573.597 187.411 537.8C17.1113 523.284 -101.003 468.837 -173.289 357.154Z" fill="#00EEF0"/>
<path d="M-480.423 201.972C-480.423 201.972 -345.086 40.4303 -143.303 62.6618C28.0702 81.5417 71.1001 178.588 56.109 246.779C50.2809 273.269 21.3458 313.605 -44.4837 287.423C-56.1536 283.027 -62.4224 257.479 -24.1155 261.495C-18.5262 262.3 0.132485 260.91 0.237314 247.942C0.270624 243.554 -5.84283 233.968 -19.7137 241.142C-28.1712 245.517 -47.676 234.661 -34.5333 224.765C-20.4924 214.199 -19.5881 206.715 -24.0763 199.629C-32.4634 186.382 -51.2053 191.234 -55.1975 192.829C-59.1897 194.423 -81.9426 200.793 -82.3254 180.039C-81.524 175.652 -76.1213 155.798 -87.4912 149.704C-98.533 143.788 -110.248 162.062 -133.384 147.679C-156.52 133.296 -142.067 92.1223 -208.367 87.1595C-339.722 77.3365 -450.13 178.857 -480.423 201.972Z" fill="#BAFFFC"/>
</g>
</g>
</svg>
