<svg width="188" height="43" viewBox="0 0 188 43" fill="none" xmlns="http://www.w3.org/2000/svg">
<path d="M166.667 0.555664H20.8333C9.3274 0.555664 0 9.87976 0 21.3816C0 32.8835 9.3274 42.2076 20.8333 42.2076H166.667C178.173 42.2076 187.5 32.8835 187.5 21.3816C187.5 9.87976 178.173 0.555664 166.667 0.555664Z" fill="#02B14F"/>
<path d="M44.8081 27.5466V27.6049H42.9539L40.4456 23.7104C40.1664 23.2731 39.804 23.0524 39.0748 23.0524H38.6956V27.6008H36.9873V17.1045H38.6956V21.4488H39.0748C39.7165 21.4488 39.9956 21.2738 40.2414 20.9114L42.9123 17.1045H44.7498V17.1628L41.7873 21.5237C41.5665 21.8611 41.3789 22.1068 41.1289 22.2693C41.4498 22.3859 41.6665 22.59 41.929 22.9982L44.804 27.5466H44.8081Z" fill="white"/>
<path d="M44.9414 23.6351C44.9414 21.1401 46.5914 19.4365 48.9831 19.4365C51.3748 19.4365 53.0247 21.1401 53.0247 23.6351C53.0247 26.13 51.3914 27.8211 48.9831 27.8211C46.5748 27.8211 44.9414 26.1134 44.9414 23.6351ZM51.3456 23.6351C51.3456 22.1189 50.3539 21.0235 48.9831 21.0235C47.6123 21.0235 46.6206 22.1189 46.6206 23.6351C46.6206 25.1512 47.6123 26.23 48.9831 26.23C50.3539 26.23 51.3456 25.1345 51.3456 23.6351Z" fill="white"/>
<path d="M54.4795 22.8359C54.4795 20.7491 55.867 19.437 58.067 19.437C60.267 19.437 61.6128 20.7366 61.6128 22.8359V27.605H59.9336V22.8816C59.9336 21.8028 59.1628 21.0281 58.067 21.0281C56.9712 21.0281 56.1587 21.8153 56.1587 22.8816V27.605H54.4795V22.8359Z" fill="white"/>
<path d="M63.9581 30.1702V28.5208L64.0039 28.4916C64.9789 29.0623 66.2206 29.4413 67.1539 29.4413C68.5414 29.4413 69.5039 28.625 69.5039 27.4004V26.3216H69.4289C68.9622 27.2088 67.9873 27.7627 66.9331 27.7627C64.6873 27.7627 63.0664 26.0717 63.0664 23.6933C63.0664 21.1567 64.6122 19.4365 66.8747 19.4365C68.0414 19.4365 69.0039 19.9031 69.3539 20.632H69.4247V19.699H71.1039V27.4129C71.1039 29.558 69.4706 31.0283 67.1206 31.0283C66.0706 31.0283 64.9747 30.7367 63.9539 30.1661L63.9581 30.1702ZM69.4289 23.5643C69.4289 22.0607 68.4831 21.0277 67.0831 21.0277C65.6831 21.0277 64.7498 22.0481 64.7498 23.5934C64.7498 25.1387 65.6539 26.1759 67.0706 26.1759C68.4872 26.1759 69.4331 25.1679 69.4331 23.5643H69.4289Z" fill="white"/>
<path d="M72.7495 27.2384V25.6349L72.7911 25.6057C73.7411 26.043 74.4828 26.2346 75.3286 26.2346C76.3953 26.2346 76.9328 25.9431 76.9328 25.3433C76.9328 24.8768 76.612 24.6144 75.6495 24.3811L74.862 24.1896C73.4745 23.8522 72.5703 23.2399 72.5703 21.8695C72.5703 20.3076 73.7536 19.437 75.8536 19.437C76.7578 19.437 77.5453 19.5953 78.1161 19.8869V21.4905L78.0745 21.5196C77.4453 21.1989 76.5703 21.0115 75.7828 21.0115C74.8495 21.0115 74.3536 21.2905 74.3536 21.8112C74.3536 22.3318 74.9078 22.5234 75.887 22.7441L76.5286 22.89C77.6661 23.1524 78.6453 23.8396 78.6453 25.2516C78.6453 26.8427 77.3786 27.8174 75.3328 27.8174C74.4411 27.8174 73.537 27.6133 72.7495 27.2342V27.2384Z" fill="white"/>
<path d="M80.041 17.6291C80.041 17.046 80.4785 16.6211 81.091 16.6211C81.7035 16.6211 82.141 17.0418 82.141 17.6291C82.141 18.2164 81.7035 18.6371 81.091 18.6371C80.4785 18.6371 80.041 18.2164 80.041 17.6291ZM80.2577 19.6992H81.9369V27.6006H80.2577V19.6992Z" fill="white"/>
<path d="M87.1289 24.4225V19.6992H88.8081V24.3809C88.8081 25.443 89.5831 26.2177 90.6914 26.2177C91.7998 26.2177 92.5706 25.4597 92.5706 24.3809V19.6992H94.2497V24.4225C94.2497 26.5092 92.8498 27.8213 90.6914 27.8213C88.5331 27.8213 87.1331 26.4926 87.1331 24.4225H87.1289Z" fill="white"/>
<path d="M95.896 27.2384V25.6349L95.9376 25.6057C96.8876 26.043 97.6293 26.2346 98.4751 26.2346C99.5376 26.2346 100.079 25.9431 100.079 25.3433C100.079 24.8768 99.7585 24.6144 98.796 24.3811L98.0085 24.1896C96.621 23.8522 95.7168 23.2399 95.7168 21.8695C95.7168 20.3076 96.9001 19.437 99.0001 19.437C99.9043 19.437 100.692 19.5953 101.263 19.8869V21.4905L101.221 21.5196C100.592 21.1989 99.7168 21.0115 98.9293 21.0115C97.996 21.0115 97.5001 21.2905 97.5001 21.8112C97.5001 22.3318 98.0543 22.5234 99.0335 22.7441L99.6751 22.89C100.813 23.1524 101.792 23.8396 101.792 25.2516C101.792 26.8427 100.525 27.8174 98.4793 27.8174C97.5876 27.8174 96.6835 27.6133 95.896 27.2342V27.2384Z" fill="white"/>
<path d="M102.996 23.6522C102.996 21.1448 104.613 19.437 107.021 19.437C109.429 19.437 111.063 21.024 111.063 23.5064V27.605H109.429V26.4095H109.354C108.859 27.2717 107.867 27.8258 106.804 27.8258C104.471 27.8258 102.996 26.2055 102.996 23.6564V23.6522ZM109.384 23.5648C109.384 22.0611 108.421 21.0281 107.021 21.0281C105.621 21.0281 104.675 22.0653 104.675 23.6105C104.675 25.1558 105.621 26.2221 107.021 26.2221C108.421 26.2221 109.384 25.1434 109.384 23.569V23.5648Z" fill="white"/>
<path d="M113.017 16.2754H114.696V20.4738H114.771C115.25 19.8491 116.158 19.4409 117.092 19.4409C119.017 19.4409 120.154 20.678 120.154 22.8064V27.6047H118.475V22.9397C118.475 21.7859 117.729 21.0445 116.579 21.0445C115.429 21.0445 114.696 21.7901 114.696 22.9397V27.6047H113.017V16.2754Z" fill="white"/>
<path d="M121.604 23.6522C121.604 21.1448 123.22 19.437 125.629 19.437C128.037 19.437 129.67 21.024 129.67 23.5064V27.605H128.037V26.4095H127.962C127.466 27.2717 126.474 27.8258 125.412 27.8258C123.079 27.8258 121.604 26.2055 121.604 23.6564V23.6522ZM127.991 23.5648C127.991 22.0611 127.029 21.0281 125.629 21.0281C124.229 21.0281 123.283 22.0653 123.283 23.6105C123.283 25.1558 124.229 26.2221 125.629 26.2221C127.029 26.2221 127.991 25.1434 127.991 23.569V23.5648Z" fill="white"/>
<path d="M134.653 17.6291C134.653 17.046 135.091 16.6211 135.703 16.6211C136.316 16.6211 136.753 17.0418 136.753 17.6291C136.753 18.2164 136.316 18.6371 135.703 18.6371C135.091 18.6371 134.653 18.2164 134.653 17.6291ZM134.87 19.6992H136.549V27.6006H134.87V19.6992Z" fill="white"/>
<path d="M138.403 22.8354C138.403 20.7486 139.791 19.4365 141.991 19.4365C144.191 19.4365 145.537 20.7361 145.537 22.8354V27.6045H143.857V22.8811C143.857 21.8024 143.087 21.0277 141.991 21.0277C140.895 21.0277 140.082 21.8149 140.082 22.8811V27.6045H138.403V22.8354Z" fill="white"/>
<path d="M147.183 17.6291C147.183 17.046 147.62 16.6211 148.233 16.6211C148.845 16.6211 149.283 17.0418 149.283 17.6291C149.283 18.2164 148.845 18.6371 148.233 18.6371C147.62 18.6371 147.183 18.2164 147.183 17.6291ZM147.399 19.6992H149.078V27.6006H147.399V19.6992Z" fill="white"/>
</svg>
