<svg width="189" height="42" viewBox="0 0 189 42" fill="none" xmlns="http://www.w3.org/2000/svg">
<path d="M167.5 0.219727H21.6663C10.1604 0.219727 0.833008 9.55062 0.833008 21.0609C0.833008 32.5711 10.1604 41.902 21.6663 41.902H167.5C179.006 41.902 188.333 32.5711 188.333 21.0609C188.333 9.55062 179.006 0.219727 167.5 0.219727Z" fill="#02B14F"/>
<path d="M37.8954 16.6714H39.4954V21.7399H39.6246L44.0746 16.6714H46.0912L41.8121 21.4523L46.1079 27.2879H44.1788L40.7496 22.5445L39.4954 23.9866V27.2879H37.8954V16.6714Z" fill="white"/>
<path d="M46.5243 23.3406C46.5243 20.8647 47.991 19.2183 50.2326 19.2183C52.4743 19.2183 53.9409 20.8605 53.9409 23.3406C53.9409 25.8207 52.4743 27.4463 50.2326 27.4463C47.991 27.4463 46.5243 25.804 46.5243 23.3406ZM52.3784 23.3364C52.3784 21.8109 51.6951 20.5187 50.2368 20.5187C48.7784 20.5187 48.0868 21.815 48.0868 23.3364C48.0868 24.8578 48.7701 26.1458 50.2368 26.1458C51.7034 26.1458 52.3784 24.8662 52.3784 23.3364Z" fill="white"/>
<path d="M57.2121 27.2837H55.6621V19.3225H57.1496V20.6187H57.2496C57.6163 19.7726 58.3996 19.2183 59.5955 19.2183C61.2246 19.2183 62.3038 20.2478 62.3038 22.2194V27.2837H60.7538V22.4069C60.7538 21.2523 60.1163 20.5604 59.0663 20.5604C58.0163 20.5604 57.2121 21.2857 57.2121 22.557V27.2837Z" fill="white"/>
<path d="M64.3289 28.6342L65.6622 28.0841C65.9372 28.5384 66.4414 29.1886 67.7289 29.1886C68.9039 29.1886 69.7622 28.6509 69.7622 27.4004V25.8332H69.6622C69.383 26.3417 68.8164 27.167 67.3581 27.167C65.4789 27.167 64.0331 25.8124 64.0331 23.2739C64.0331 20.7355 65.4497 19.2183 67.3705 19.2183C68.8539 19.2183 69.4039 20.1185 69.6747 20.6146H69.7872V19.3225H71.3039V27.4589C71.3039 29.5055 69.7414 30.4349 67.7122 30.4349C65.8122 30.4349 64.7497 29.6054 64.3289 28.6301V28.6342ZM69.7747 23.2531C69.7747 21.64 69.0497 20.5354 67.6955 20.5354C66.3414 20.5354 65.5914 21.7233 65.5914 23.2531C65.5914 24.7828 66.3122 25.8791 67.6955 25.8791C69.0789 25.8791 69.7747 24.8954 69.7747 23.2531Z" fill="white"/>
<path d="M77.9329 21.515C77.7496 20.9814 77.3079 20.4479 76.3412 20.4479C75.462 20.4479 74.7954 20.8814 74.8037 21.4941C74.7996 22.0318 75.1787 22.3277 76.0537 22.5362L77.3162 22.8279C78.7787 23.1655 79.4912 23.8616 79.4912 24.9829C79.4912 26.4251 78.1579 27.4463 76.237 27.4463C74.4495 27.4463 73.2787 26.6544 73.0204 25.2413L74.5162 25.0121C74.7037 25.7957 75.2995 26.1959 76.2245 26.1959C77.2412 26.1959 77.8995 25.7123 77.8995 25.0954C77.8995 24.5994 77.5412 24.2576 76.7746 24.0867L75.4287 23.7908C73.9371 23.4573 73.2537 22.707 73.2537 21.5774C73.2537 20.1686 74.5287 19.2183 76.3246 19.2183C78.1204 19.2183 79.0121 20.0269 79.3371 21.2648L77.9329 21.515Z" fill="white"/>
<path d="M80.9911 17.1717C80.9911 16.6632 81.4327 16.2422 81.9702 16.2422C82.5077 16.2422 82.9494 16.6632 82.9494 17.1717C82.9494 17.6802 82.5036 18.0929 81.9702 18.0929C81.4369 18.0929 80.9911 17.676 80.9911 17.1717ZM81.1869 19.3226H82.7369V27.2838H81.1869V19.3226Z" fill="white"/>
<path d="M93.7244 19.3228H95.2786V27.284H93.7536V25.9044H93.6703C93.3036 26.7547 92.4869 27.3882 91.2911 27.3882C89.7619 27.3882 88.6786 26.3629 88.6786 24.3871V19.3228H90.2286V24.1996C90.2286 25.2833 90.8911 25.9794 91.8494 25.9794C92.7202 25.9794 93.7245 25.3375 93.7203 23.9828V19.3228H93.7244Z" fill="white"/>
<path d="M101.912 21.515C101.729 20.9814 101.287 20.4479 100.321 20.4479C99.4415 20.4479 98.7748 20.8814 98.7832 21.4941C98.779 22.0318 99.1582 22.3277 100.033 22.5362L101.296 22.8279C102.758 23.1655 103.471 23.8616 103.471 24.9829C103.471 26.4251 102.137 27.4463 100.217 27.4463C98.429 27.4463 97.2582 26.6544 96.9999 25.2413L98.4957 25.0121C98.6832 25.7957 99.279 26.1959 100.204 26.1959C101.221 26.1959 101.879 25.7123 101.879 25.0954C101.879 24.5994 101.521 24.2576 100.754 24.0867L99.4082 23.7908C97.9165 23.4573 97.2332 22.707 97.2332 21.5774C97.2332 20.1686 98.5082 19.2183 100.304 19.2183C102.1 19.2183 102.992 20.0269 103.317 21.2648L101.912 21.515Z" fill="white"/>
<path d="M104.791 25.0374C104.791 23.2283 106.337 22.8324 107.841 22.6573C109.27 22.4906 109.854 22.5031 109.854 21.9362V21.8987C109.854 20.9983 109.341 20.4732 108.341 20.4732C107.341 20.4732 106.72 21.0192 106.491 21.5819L105.033 21.2484C105.549 19.7979 106.879 19.2144 108.316 19.2144C109.579 19.2144 111.404 19.677 111.404 21.9945V27.2798H109.891V26.192H109.829C109.533 26.788 108.791 27.455 107.474 27.455C105.962 27.455 104.787 26.5963 104.787 25.029L104.791 25.0374ZM109.858 24.4163V23.3909C109.633 23.6118 108.441 23.7494 107.941 23.8161C107.045 23.937 106.308 24.2329 106.308 25.0582C106.308 25.8252 106.941 26.2211 107.816 26.2211C109.108 26.2211 109.858 25.3625 109.858 24.4163Z" fill="white"/>
<path d="M115.017 27.2839H113.467V16.6675H114.996V20.619H115.096C115.471 19.7603 116.217 19.2185 117.454 19.2185C119.092 19.2185 120.179 20.2355 120.179 22.2196V27.2839H118.629V22.4071C118.629 21.24 117.992 20.5606 116.925 20.5606C115.858 20.5606 115.017 21.2859 115.017 22.5572V27.2839Z" fill="white"/>
<path d="M121.87 25.0374C121.87 23.2283 123.416 22.8324 124.92 22.6573C126.349 22.4906 126.933 22.5031 126.933 21.9362V21.8987C126.933 20.9983 126.42 20.4732 125.42 20.4732C124.42 20.4732 123.799 21.0192 123.57 21.5819L122.112 21.2484C122.629 19.7979 123.958 19.2144 125.395 19.2144C126.658 19.2144 128.483 19.677 128.483 21.9945V27.2798H126.97V26.192H126.908C126.612 26.788 125.87 27.455 124.554 27.455C123.041 27.455 121.866 26.5963 121.866 25.029L121.87 25.0374ZM126.937 24.4163V23.3909C126.712 23.6118 125.52 23.7494 125.02 23.8161C124.124 23.937 123.387 24.2329 123.387 25.0582C123.387 25.8252 124.02 26.2211 124.895 26.2211C126.187 26.2211 126.937 25.3625 126.937 24.4163Z" fill="white"/>
<path d="M134.213 17.1717C134.213 16.6632 134.654 16.2422 135.192 16.2422C135.729 16.2422 136.171 16.6632 136.171 17.1717C136.171 17.6802 135.725 18.0929 135.192 18.0929C134.659 18.0929 134.213 17.676 134.213 17.1717ZM134.409 19.3226H135.959V27.2838H134.409V19.3226Z" fill="white"/>
<path d="M139.587 27.2837H138.037V19.3225H139.524V20.6187H139.624C139.991 19.7726 140.774 19.2183 141.97 19.2183C143.599 19.2183 144.679 20.2478 144.679 22.2194V27.2837H143.129V22.4069C143.129 21.2523 142.491 20.5604 141.441 20.5604C140.391 20.5604 139.587 21.2857 139.587 22.557V27.2837Z" fill="white"/>
<path d="M146.554 17.1717C146.554 16.6632 146.995 16.2422 147.533 16.2422C148.07 16.2422 148.512 16.6632 148.512 17.1717C148.512 17.6802 148.066 18.0929 147.533 18.0929C146.999 18.0929 146.554 17.676 146.554 17.1717ZM146.749 19.3226H148.299V27.2838H146.749V19.3226Z" fill="white"/>
</svg>
