<svg width="225" height="59" viewBox="0 0 225 59" fill="none" xmlns="http://www.w3.org/2000/svg">
<path d="M195.996 0.79248H29.8333C13.8147 0.79248 0.829102 13.7766 0.829102 29.7932C0.829102 45.8099 13.8147 58.794 29.8333 58.794H195.996C212.014 58.794 225 45.8099 225 29.7932C225 13.7766 212.014 0.79248 195.996 0.79248Z" fill="#A0D92A"/>
<path d="M40.2671 26.1193V26.1777H38.4129L35.9046 22.2823C35.6254 21.8448 35.263 21.624 34.5338 21.624H34.1546V26.1735H32.4463V15.6748H34.1546V20.0201H34.5338C35.1755 20.0201 35.4546 19.8451 35.7004 19.4826L38.3713 15.6748H40.2088V15.7331L37.2463 20.0951C37.0255 20.4325 36.8379 20.6783 36.5879 20.8408C36.9088 20.9575 37.1254 21.1616 37.3879 21.5699L40.263 26.1193H40.2671Z" fill="#005339"/>
<path d="M40.4004 22.2108C40.4004 19.7152 42.0504 18.0112 44.442 18.0112C46.8337 18.0112 48.4837 19.7152 48.4837 22.2108C48.4837 24.7063 46.8504 26.3978 44.442 26.3978C42.0337 26.3978 40.4004 24.6896 40.4004 22.2108ZM46.8046 22.2108C46.8046 20.6943 45.8129 19.5986 44.442 19.5986C43.0712 19.5986 42.0796 20.6943 42.0796 22.2108C42.0796 23.7272 43.0712 24.8063 44.442 24.8063C45.8129 24.8063 46.8046 23.7106 46.8046 22.2108Z" fill="#005339"/>
<path d="M49.9375 21.4073C49.9375 19.3198 51.325 18.0073 53.525 18.0073C55.725 18.0073 57.0708 19.3073 57.0708 21.4073V26.1782H55.3917V21.4532C55.3917 20.374 54.6208 19.599 53.525 19.599C52.4292 19.599 51.6167 20.3865 51.6167 21.4532V26.1782H49.9375V21.4073Z" fill="#005339"/>
<path d="M59.4171 28.7436V27.0938L59.4629 27.0646C60.4379 27.6353 61.6796 28.0145 62.6129 28.0145C64.0004 28.0145 64.9629 27.1979 64.9629 25.9731V24.894H64.8879C64.4212 25.7814 63.4462 26.3355 62.3921 26.3355C60.1462 26.3355 58.5254 24.644 58.5254 22.2651C58.5254 19.7279 60.0712 18.0073 62.3337 18.0073C63.5004 18.0073 64.4629 18.474 64.8129 19.2031H64.8837V18.2698H66.5629V25.9856C66.5629 28.1312 64.9295 29.6018 62.5795 29.6018C61.5295 29.6018 60.4337 29.3101 59.4129 28.7394L59.4171 28.7436ZM64.8879 22.136C64.8879 20.632 63.9421 19.5988 62.5421 19.5988C61.1421 19.5988 60.2087 20.6195 60.2087 22.1652C60.2087 23.7108 61.1129 24.7482 62.5296 24.7482C63.9462 24.7482 64.8921 23.7399 64.8921 22.136H64.8879Z" fill="#005339"/>
<path d="M68.2084 25.8145V24.2105L68.2501 24.1814C69.2001 24.6188 69.9418 24.8104 70.7876 24.8104C71.8501 24.8104 72.3918 24.5188 72.3918 23.9188C72.3918 23.4522 72.0709 23.1898 71.1084 22.9565L70.321 22.7648C68.9335 22.4273 68.0293 21.815 68.0293 20.4443C68.0293 18.882 69.2126 18.0112 71.3126 18.0112C72.2168 18.0112 73.0043 18.1696 73.5751 18.4612V20.0651L73.5334 20.0943C72.9043 19.7735 72.0293 19.5861 71.2418 19.5861C70.3084 19.5861 69.8126 19.8652 69.8126 20.3859C69.8126 20.9067 70.3668 21.0983 71.3459 21.3191L71.9876 21.465C73.1251 21.7275 74.1043 22.4149 74.1043 23.8272C74.1043 25.4187 72.8376 26.3936 70.7918 26.3936C69.9001 26.3936 68.9959 26.1894 68.2084 25.8103V25.8145Z" fill="#005339"/>
<path d="M75.5 16.2035C75.5 15.6202 75.9375 15.1953 76.55 15.1953C77.1625 15.1953 77.6 15.6161 77.6 16.2035C77.6 16.7909 77.1625 17.2118 76.55 17.2118C75.9375 17.2118 75.5 16.7909 75.5 16.2035ZM75.7167 18.2742H77.3959V26.1774H75.7167V18.2742Z" fill="#005339"/>
<path d="M82.517 25.8145V24.2105L82.5587 24.1814C83.5087 24.6188 84.2504 24.8104 85.0962 24.8104C86.1629 24.8104 86.7004 24.5188 86.7004 23.9188C86.7004 23.4522 86.3796 23.1898 85.4171 22.9565L84.6296 22.7648C83.2421 22.4273 82.3379 21.815 82.3379 20.4443C82.3379 18.882 83.5212 18.0112 85.6212 18.0112C86.5254 18.0112 87.3129 18.1696 87.8837 18.4612V20.0651L87.842 20.0943C87.2129 19.7735 86.3379 19.5861 85.5504 19.5861C84.617 19.5861 84.1212 19.8652 84.1212 20.3859C84.1212 20.9067 84.6754 21.0983 85.6545 21.3191L86.2962 21.465C87.4337 21.7275 88.4129 22.4149 88.4129 23.8272C88.4129 25.4187 87.1462 26.3936 85.1004 26.3936C84.2087 26.3936 83.3045 26.1894 82.517 25.8103V25.8145Z" fill="#005339"/>
<path d="M89.6172 22.2108C89.6172 19.7152 91.2672 18.0112 93.6589 18.0112C96.0506 18.0112 97.7005 19.7152 97.7005 22.2108C97.7005 24.7063 96.0672 26.3978 93.6589 26.3978C91.2506 26.3978 89.6172 24.6896 89.6172 22.2108ZM96.0214 22.2108C96.0214 20.6943 95.0297 19.5986 93.6589 19.5986C92.2881 19.5986 91.2964 20.6943 91.2964 22.2108C91.2964 23.7272 92.2881 24.8063 93.6589 24.8063C95.0297 24.8063 96.0214 23.7106 96.0214 22.2108Z" fill="#005339"/>
<path d="M106.434 26.1189V26.1773H104.48L102.655 23.39C102.35 22.9234 102.042 22.7485 101.442 22.7485H101.063V26.1773H99.3838V14.8452H101.063V21.1153H101.459C102.013 21.1153 102.217 20.9862 102.567 20.5321L104.288 18.2741H106.259V18.3323L104.246 21.1487C103.925 21.5986 103.605 21.8361 103.255 21.936C103.588 22.0694 103.925 22.3319 104.205 22.7527L106.438 26.1231L106.434 26.1189Z" fill="#005339"/>
<path d="M106.796 22.2108C106.796 19.7152 108.446 18.0112 110.838 18.0112C113.229 18.0112 114.879 19.7152 114.879 22.2108C114.879 24.7063 113.246 26.3978 110.838 26.3978C108.429 26.3978 106.796 24.6896 106.796 22.2108ZM113.2 22.2108C113.2 20.6943 112.208 19.5986 110.838 19.5986C109.467 19.5986 108.475 20.6943 108.475 22.2108C108.475 23.7272 109.467 24.8063 110.838 24.8063C112.208 24.8063 113.2 23.7106 113.2 22.2108Z" fill="#005339"/>
<path d="M116.334 21.4073C116.334 19.3198 117.721 18.0073 119.921 18.0073C122.121 18.0073 123.467 19.3073 123.467 21.4073V26.1782H121.788V21.4532C121.788 20.374 121.017 19.599 119.921 19.599C118.826 19.599 118.013 20.3865 118.013 21.4532V26.1782H116.334V21.4073Z" fill="#005339"/>
<path d="M125.813 28.7436V27.0938L125.858 27.0646C126.833 27.6353 128.075 28.0145 129.008 28.0145C130.396 28.0145 131.358 27.1979 131.358 25.9731V24.894H131.283C130.817 25.7814 129.842 26.3355 128.788 26.3355C126.542 26.3355 124.921 24.644 124.921 22.2651C124.921 19.7279 126.467 18.0073 128.729 18.0073C129.896 18.0073 130.858 18.474 131.208 19.2031H131.279V18.2698H132.958V25.9856C132.958 28.1312 131.325 29.6018 128.975 29.6018C127.925 29.6018 126.829 29.3101 125.808 28.7394L125.813 28.7436ZM131.283 22.136C131.283 20.632 130.338 19.5988 128.938 19.5988C127.538 19.5988 126.604 20.6195 126.604 22.1652C126.604 23.7108 127.508 24.7482 128.925 24.7482C130.342 24.7482 131.288 23.7399 131.288 22.136H131.283Z" fill="#005339"/>
<path d="M134.417 22.2235C134.417 19.7155 136.034 18.0073 138.442 18.0073C140.85 18.0073 142.484 19.5946 142.484 22.0777V26.1772H140.85V24.9815H140.775C140.279 25.8439 139.288 26.398 138.225 26.398C135.892 26.398 134.417 24.7774 134.417 22.2277V22.2235ZM140.804 22.136C140.804 20.632 139.842 19.5988 138.442 19.5988C137.042 19.5988 136.096 20.6362 136.096 22.1818C136.096 23.7275 137.042 24.794 138.442 24.794C139.842 24.794 140.804 23.7149 140.804 22.1401V22.136Z" fill="#005339"/>
<path d="M144.2 21.4073C144.2 19.3198 145.588 18.0073 147.788 18.0073C149.988 18.0073 151.334 19.3073 151.334 21.4073V26.1782H149.654V21.4532C149.654 20.374 148.884 19.599 147.788 19.599C146.692 19.599 145.879 20.3865 145.879 21.4532V26.1782H144.2V21.4073Z" fill="#005339"/>
<path d="M156.129 22.2235C156.129 19.7155 157.746 18.0073 160.154 18.0073C162.562 18.0073 164.196 19.5946 164.196 22.0777V26.1772H162.562V24.9815H162.487C161.991 25.8439 161 26.398 159.937 26.398C157.604 26.398 156.129 24.7774 156.129 22.2277V22.2235ZM162.516 22.136C162.516 20.632 161.554 19.5988 160.154 19.5988C158.754 19.5988 157.808 20.6362 157.808 22.1818C157.808 23.7275 158.754 24.794 160.154 24.794C161.554 24.794 162.516 23.7149 162.516 22.1401V22.136Z" fill="#005339"/>
<path d="M165.917 21.4073C165.917 19.3198 167.304 18.0073 169.504 18.0073C171.704 18.0073 173.05 19.3073 173.05 21.4073V26.1782H171.371V21.4532C171.371 20.374 170.6 19.599 169.504 19.599C168.409 19.599 167.596 20.3865 167.596 21.4532V26.1782H165.917V21.4073Z" fill="#005339"/>
<path d="M174.505 22.1986C174.505 19.7322 176.067 18.0115 178.284 18.0115C179.363 18.0115 180.355 18.4906 180.822 19.2364H180.892V14.8452H182.572V22.136C182.572 24.6732 180.938 26.3939 178.547 26.3939C176.155 26.3939 174.505 24.6733 174.505 22.1944V22.1986ZM180.892 22.1111C180.892 20.6071 179.942 19.603 178.513 19.603C177.084 19.603 176.18 20.6112 176.18 22.1402C176.18 23.6692 177.172 24.8108 178.542 24.8108C179.913 24.8108 180.892 23.6859 180.892 22.1111Z" fill="#005339"/>
<path d="M184.029 22.2235C184.029 19.7155 185.646 18.0073 188.054 18.0073C190.463 18.0073 192.096 19.5946 192.096 22.0777V26.1772H190.463V24.9815H190.388C189.892 25.8439 188.9 26.398 187.838 26.398C185.504 26.398 184.029 24.7774 184.029 22.2277V22.2235ZM190.417 22.136C190.417 20.632 189.454 19.5988 188.054 19.5988C186.654 19.5988 185.708 20.6362 185.708 22.1818C185.708 23.7275 186.654 24.794 188.054 24.794C189.454 24.794 190.417 23.7149 190.417 22.1401V22.136Z" fill="#005339"/>
<path d="M25.4669 41.0096V36.2847H27.1461V40.968C27.1461 42.0305 27.9211 42.8055 29.0294 42.8055C30.1377 42.8055 30.9127 42.0472 30.9127 40.968V36.2847H32.5919V41.0096C32.5919 43.0971 31.1919 44.4097 29.0336 44.4097C26.8752 44.4097 25.4753 43.0804 25.4753 41.0096H25.4669Z" fill="#005339"/>
<path d="M34.3047 39.4181C34.3047 37.3306 35.6922 36.0181 37.8922 36.0181C40.0922 36.0181 41.438 37.3181 41.438 39.4181V44.1889H39.7588V39.4639C39.7588 38.3847 38.988 37.6098 37.8922 37.6098C36.7963 37.6098 35.9839 38.3972 35.9839 39.4639V44.1889H34.3047V39.4181Z" fill="#005339"/>
<path d="M47.5174 42.5254V44.1168C47.1508 44.246 46.48 44.3335 45.9425 44.3335C44.5425 44.3335 43.7674 43.5628 43.7674 42.1463V37.8427H42.4258V36.2804H43.7674V34.5889H45.4466V36.2804H47.3425V37.8427H45.4466V41.8255C45.4466 42.3504 45.7966 42.7004 46.3216 42.7004C46.5841 42.7004 47.0674 42.6296 47.5174 42.5254Z" fill="#005339"/>
<path d="M48.6963 41.0096V36.2847H50.3755V40.968C50.3755 42.0305 51.1504 42.8055 52.2588 42.8055C53.3671 42.8055 54.1379 42.0472 54.1379 40.968V36.2847H55.8171V41.0096C55.8171 43.0971 54.4171 44.4097 52.2588 44.4097C50.1004 44.4097 48.7005 43.0804 48.7005 41.0096H48.6963Z" fill="#005339"/>
<path d="M64.8125 44.1295V44.1879H62.8584L61.0334 41.4008C60.7292 40.9342 60.4209 40.7592 59.8209 40.7592H59.4417V44.1879H57.7626V32.856H59.4417V39.126H59.8376C60.3917 39.126 60.5959 38.9968 60.9459 38.5427L62.6667 36.2847H64.6376V36.343L62.625 39.1593C62.3042 39.6093 61.9834 39.8467 61.6334 39.9467C61.9667 40.08 62.3042 40.3426 62.5834 40.7633L64.8167 44.1337L64.8125 44.1295Z" fill="#005339"/>
<path d="M69.1417 38.9676C69.1417 35.6138 71.2584 33.4683 74.5542 33.4683C75.8084 33.4683 76.9334 33.7765 77.8792 34.389V36.1846L77.7751 36.2012C76.7959 35.5013 75.7334 35.1514 74.6251 35.1514C72.3793 35.1514 70.9042 36.6387 70.9042 38.9426C70.9042 41.2465 72.3334 42.7338 74.4918 42.7338C76.2293 42.7338 77.3793 41.6839 77.3793 40.1216H74.4626V38.5468H79.1459V39.7133C79.1459 42.5422 77.2918 44.4086 74.4918 44.4086C71.2834 44.4086 69.1376 42.2339 69.1376 38.9676H69.1417Z" fill="#005339"/>
<path d="M80.6504 39.522C80.6504 37.2012 81.7879 36.022 84.0213 36.022C84.5921 36.022 85.0129 36.097 85.4796 36.2845V37.847C85.1129 37.7012 84.6046 37.6137 84.1962 37.6137C82.9837 37.6137 82.3296 38.3595 82.3296 39.7012V44.1929H80.6504V39.5262V39.522Z" fill="#005339"/>
<path d="M94.2129 40.8631H88.4962C88.7296 42.1463 89.6754 42.8045 91.267 42.8045C92.2879 42.8045 93.2962 42.5421 93.9962 42.0921L94.0379 42.1337V43.6503C93.3254 44.1335 92.242 44.4085 91.0754 44.4085C88.142 44.4085 86.7129 42.6129 86.7129 40.0923C86.7129 37.5718 88.4046 36.022 90.6212 36.022C92.8379 36.022 94.2671 37.4802 94.2671 39.9174C94.2671 40.2965 94.2379 40.7048 94.2087 40.8673L94.2129 40.8631ZM92.6087 39.4632C92.6087 38.3675 91.8087 37.5968 90.5962 37.5968C89.3837 37.5968 88.6254 38.2675 88.4504 39.4632H92.6087Z" fill="#005339"/>
<path d="M102.963 40.8631H97.2462C97.4796 42.1463 98.4254 42.8045 100.017 42.8045C101.038 42.8045 102.046 42.5421 102.746 42.0921L102.788 42.1337V43.6503C102.075 44.1335 100.992 44.4085 99.8254 44.4085C96.892 44.4085 95.4629 42.6129 95.4629 40.0923C95.4629 37.5718 97.1546 36.022 99.3712 36.022C101.588 36.022 103.017 37.4802 103.017 39.9174C103.017 40.2965 102.988 40.7048 102.959 40.8673L102.963 40.8631ZM101.359 39.4632C101.359 38.3675 100.559 37.5968 99.3462 37.5968C98.1337 37.5968 97.3754 38.2675 97.2004 39.4632H101.359Z" fill="#005339"/>
<path d="M104.476 39.4181C104.476 37.3306 105.863 36.0181 108.063 36.0181C110.263 36.0181 111.609 37.3181 111.609 39.4181V44.1889H109.93V39.4639C109.93 38.3847 109.159 37.6098 108.063 37.6098C106.967 37.6098 106.155 38.3972 106.155 39.4639V44.1889H104.476V39.4181Z" fill="#005339"/>
<path d="M124.313 37.2179C124.313 39.4635 122.796 40.88 120.375 40.88H118.609V44.1921H116.9V33.6934H120.371C122.838 33.6934 124.309 35.0057 124.309 37.2221L124.313 37.2179ZM122.592 37.2179C122.592 36.0056 121.775 35.2639 120.463 35.2639H118.609V39.3052H120.463C121.734 39.3052 122.592 38.4719 122.592 37.2221V37.2179Z" fill="#005339"/>
<path d="M125.929 39.522C125.929 37.2012 127.066 36.022 129.3 36.022C129.87 36.022 130.291 36.097 130.758 36.2845V37.847C130.391 37.7012 129.883 37.6137 129.475 37.6137C128.262 37.6137 127.608 38.3595 127.608 39.7012V44.1929H125.929V39.5262V39.522Z" fill="#005339"/>
<path d="M131.996 40.2215C131.996 37.726 133.646 36.022 136.038 36.022C138.429 36.022 140.079 37.7301 140.079 40.2215C140.079 42.7129 138.446 44.4085 136.038 44.4085C133.629 44.4085 131.996 42.7004 131.996 40.2215ZM138.4 40.2215C138.4 38.705 137.409 37.6093 136.038 37.6093C134.667 37.6093 133.675 38.705 133.675 40.2215C133.675 41.738 134.667 42.817 136.038 42.817C137.409 42.817 138.4 41.7213 138.4 40.2215Z" fill="#005339"/>
<path d="M142.158 46.7543V45.1045L142.204 45.0753C143.179 45.6461 144.421 46.0252 145.354 46.0252C146.742 46.0252 147.704 45.2087 147.704 43.9838V42.9048H147.629C147.162 43.7922 146.187 44.3462 145.133 44.3462C142.887 44.3462 141.267 42.6548 141.267 40.2759C141.267 37.7387 142.812 36.0181 145.075 36.0181C146.242 36.0181 147.204 36.4847 147.554 37.2138H147.625V36.2806H149.304V43.9963C149.304 46.1419 147.671 47.6125 145.321 47.6125C144.271 47.6125 143.175 47.3209 142.154 46.7543H142.158ZM147.629 40.1468C147.629 38.6428 146.683 37.6096 145.283 37.6096C143.883 37.6096 142.95 38.6302 142.95 40.1759C142.95 41.7215 143.854 42.7589 145.271 42.7589C146.687 42.7589 147.633 41.7508 147.633 40.1468H147.629Z" fill="#005339"/>
<path d="M151.025 39.522C151.025 37.2012 152.163 36.022 154.396 36.022C154.967 36.022 155.388 36.097 155.855 36.2845V37.847C155.488 37.7012 154.98 37.6137 154.571 37.6137C153.359 37.6137 152.705 38.3595 152.705 39.7012V44.1929H151.025V39.5262V39.522Z" fill="#005339"/>
<path d="M157.092 40.2343C157.092 37.7262 158.708 36.0181 161.117 36.0181C163.525 36.0181 165.158 37.6096 165.158 40.0884V44.188H163.525V42.9922H163.45C162.954 43.8546 161.963 44.4088 160.9 44.4088C158.567 44.4088 157.092 42.7881 157.092 40.2384V40.2343ZM163.479 40.1468C163.479 38.6428 162.517 37.6096 161.117 37.6096C159.717 37.6096 158.771 38.6469 158.771 40.1926C158.771 41.7382 159.717 42.8048 161.117 42.8048C162.517 42.8048 163.479 41.7258 163.479 40.151V40.1468Z" fill="#005339"/>
<path d="M177.625 39.0973V44.1889H175.946V39.1139C175.946 38.1222 175.346 37.6098 174.53 37.6098C173.713 37.6098 173.084 38.1347 173.084 39.1431V44.1889H171.405V39.1431C171.405 38.1347 170.78 37.6098 169.963 37.6098C169.146 37.6098 168.546 38.1222 168.546 39.1139V44.1889H166.867V39.0973C166.867 37.2723 167.992 36.0181 169.771 36.0181C171.288 36.0181 172.076 36.9681 172.238 37.5931C172.413 36.9639 173.276 36.0181 174.805 36.0181C176.571 36.0181 177.621 37.2431 177.621 39.0973H177.625Z" fill="#005339"/>
<path d="M190.096 39.0973V44.1889H188.417V39.1139C188.417 38.1222 187.817 37.6098 187 37.6098C186.184 37.6098 185.555 38.1347 185.555 39.1431V44.1889H183.875V39.1431C183.875 38.1347 183.25 37.6098 182.434 37.6098C181.617 37.6098 181.017 38.1222 181.017 39.1139V44.1889H179.338V39.0973C179.338 37.2723 180.463 36.0181 182.242 36.0181C183.759 36.0181 184.546 36.9681 184.709 37.5931C184.884 36.9639 185.746 36.0181 187.275 36.0181C189.042 36.0181 190.092 37.2431 190.092 39.0973H190.096Z" fill="#005339"/>
<path d="M199.05 40.8631H193.333C193.566 42.1463 194.512 42.8045 196.104 42.8045C197.125 42.8045 198.133 42.5421 198.833 42.0921L198.875 42.1337V43.6503C198.162 44.1335 197.079 44.4085 195.912 44.4085C192.979 44.4085 191.55 42.6129 191.55 40.0923C191.55 37.5718 193.241 36.022 195.458 36.022C197.675 36.022 199.104 37.4802 199.104 39.9174C199.104 40.2965 199.075 40.7048 199.046 40.8673L199.05 40.8631ZM197.446 39.4632C197.446 38.3675 196.646 37.5968 195.433 37.5968C194.221 37.5968 193.462 38.2675 193.287 39.4632H197.446Z" fill="#005339"/>
</svg>
