<svg width="114" height="13" viewBox="0 0 114 13" fill="none" xmlns="http://www.w3.org/2000/svg">
<g opacity="0.57">
<path d="M0.487305 11.0108C0.839902 11.2317 1.44545 11.2526 2.02034 11.2901C1.57959 11.0776 1.10818 10.9858 0.487305 11.0108Z" fill="#43C554"/>
<path d="M2.0305 11.2939H2.03815C2.0305 11.2939 2.02286 11.2939 2.01904 11.2939C2.02286 11.2939 2.02667 11.2939 2.0305 11.2981V11.2939Z" fill="#43C554"/>
<path d="M113.564 1.25635C113.422 1.26051 113.257 1.26469 113.092 1.26886C113.249 1.27719 113.41 1.27718 113.564 1.25635Z" fill="#43C554"/>
<path d="M29.8788 11.9106L29.9669 11.5439C31.3313 11.5355 30.3655 11.9647 31.6264 11.873C32.1208 11.3522 33.7229 11.923 34.1559 11.648C34.1444 11.6897 34.7653 11.7064 34.7232 11.8689C34.9109 11.5855 35.3593 11.8023 35.7464 11.7314C35.8882 11.6523 35.643 11.648 35.5357 11.5605L36.4286 11.4606C36.7774 11.5522 36.8617 11.7189 36.4861 11.748C38.8163 11.848 50.0113 12.1064 52.5216 11.9647C52.1997 11.7522 51.4217 11.898 51.1304 11.5605C51.7934 11.373 52.1077 11.6272 52.399 11.4272C52.6558 11.9272 53.8592 11.5439 54.3613 12.0522L54.5529 11.7689L54.8825 11.9398C57.8029 11.6439 55.5494 11.7939 58.1364 11.8605C59.6349 11.8147 60.3478 11.4231 61.1794 11.5689C61.0568 11.5689 60.7234 11.3939 61.1143 11.3189C61.1794 11.5689 62.149 11.1397 62.3368 11.3897C62.7163 11.3564 63.9465 11.3897 63.5326 11.0481C63.7434 11.2189 64.8395 11.2855 64.188 11.4314C64.5598 11.4397 64.9162 11.4898 65.1845 11.4148L64.7092 11.3189C65.9625 11.2689 66.6447 11.5314 67.4572 11.223L66.9934 11.0898C67.7408 11.0689 68.3693 11.0397 68.6606 11.3772L67.8941 11.4814C69.1358 11.4731 69.8832 11.4481 70.918 11.2689L70.5501 11.2606C71.8685 10.9231 78.7633 10.6397 79.9744 10.2189L79.4148 9.96061L80.4573 9.73977C80.3346 9.73977 79.9552 10.5855 79.8517 10.5022C82.09 10.4772 93.7295 10.2647 95.7953 10.4397C96.6308 10.5814 95.9447 10.8523 95.9371 10.8939C96.9527 10.7939 96.374 10.6189 97.2363 10.6397C97.4701 10.6856 97.1865 10.8439 97.0562 10.8814C97.4356 10.8523 97.7844 10.9397 97.815 10.8189C97.3436 10.723 97.5429 10.4022 97.3436 10.1897L98.455 10.2147L98.4052 10.4189C98.6543 10.4231 99.0338 9.86052 100.122 9.96885C101.962 10.0564 103.959 9.98141 105.81 10.0272C105.783 10.1481 105.392 10.223 105.005 10.2939C105.254 10.298 105.63 10.2689 105.86 10.3564C105.411 10.1398 106.634 10.2106 106.285 10.1189C107.638 9.6189 109.393 10.0731 110.589 9.73142C110.692 9.28142 113.145 2.01891 113.145 1.48558C113.517 1.49391 113.885 1.5022 114 1.54803C113.904 1.42303 113.176 1.36469 112.785 1.43553L112.72 1.7231C111.827 1.8231 112.509 1.55223 111.639 1.57306C111.593 1.33973 112.394 1.28973 113.099 1.26473C112.463 1.23973 111.831 1.06885 111.57 1.32302C110.972 1.22719 111.635 1.03555 110.919 0.935547C110.405 1.00638 109.734 1.2356 109.144 1.0981L109.156 1.0564C107.726 0.81473 106.967 1.41475 105.656 1.17725L105.798 1.0981C105.335 0.964771 104.426 1.14395 103.591 1.00228C103.828 1.04811 104.035 1.21888 103.533 1.24805C102.575 1.10221 101.92 1.24808 101.218 1.06891L100.548 1.2981C97.2095 1.25643 84.0254 1.59395 80.6719 1.63145L80.8022 1.59391C75.6934 1.71475 65.2036 1.70226 59.9262 2.02309C59.1098 1.79809 57.9831 1.85223 57.1322 1.78973C57.6075 1.8814 57.4426 2.04394 57.0747 2.0356C54.4801 2.0106 56.8984 2.18971 54.2731 2.28971C51.2492 2.50221 39.6786 2.27305 36.9958 2.08138C35.5548 2.41471 33.7535 2.1647 32.3431 2.3772L32.4849 2.29805C30.9672 2.42305 22.3822 2.1231 20.6193 2.24394L20.8569 2.28971C19.32 2.49805 19.5308 2.13559 18.3159 2.02309C18.4768 2.39392 17.1585 2.61058 16.6564 2.63558L16.6755 2.55227C15.9167 2.61477 14.2035 2.93969 12.9503 2.99386L13.0001 2.78969C11.9576 3.01053 9.99535 2.91891 9.24417 2.94391C7.53101 2.86058 4.8827 2.50635 2.59082 2.78135L1.10762 2.20223L0.889156 2.26052C0.889156 2.26052 -1.49087 9.2856 1.53686 10.7814L1.48704 10.9856L2.08492 10.9606C2.80161 11.0606 3.13504 10.823 3.08521 11.0272L2.10024 11.0023C2.82076 11.0606 2.31871 11.1689 2.04277 11.2856C2.34554 11.3064 2.63681 11.3272 2.87826 11.3897C3.02007 11.3106 2.77478 11.3064 2.6598 11.2606C3.0469 11.1897 3.5873 10.9981 4.06254 11.0898C4.80223 11.1064 4.10853 11.4189 4.97086 11.4397C9.52013 11.5939 13.9276 11.8272 18.5267 11.7772C18.6302 11.8606 18.5075 11.8606 18.3734 11.8981C19.7569 11.8106 20.991 11.8397 22.2519 11.748C22.6007 11.8397 22.6965 11.9648 22.8 12.0481C22.5931 11.8773 29.7638 11.8564 29.8788 11.9022V11.9106Z" fill="#43C554"/>
</g>
</svg>
